<?xml version="1.0" standalone="no"?>
<!DOCTYPE svg PUBLIC "-//W3C//DTD SVG 20010904//EN"
 "http://www.w3.org/TR/2001/REC-SVG-20010904/DTD/svg10.dtd">
<svg version="1.0" xmlns="http://www.w3.org/2000/svg"
 width="500.000000pt" height="500.000000pt" viewBox="0 0 500.000000 500.000000"
 preserveAspectRatio="xMidYMid meet">

<g transform="translate(0.000000,500.000000) scale(0.100000,-0.100000)"
fill="#000000" stroke="none">
<path d="M1380 2321 l0 -1581 320 0 320 0 0 600 0 600 163 0 164 0 404 -600
404 -600 369 0 c293 0 366 3 358 12 -17 22 -824 1242 -828 1253 -3 6 26 19 63
29 97 28 207 86 285 150 190 157 297 441 298 789 l0 77 -600 0 -600 0 0 -180
0 -180 250 0 c160 0 250 -4 250 -10 0 -21 -76 -93 -123 -117 -96 -48 -156 -55
-519 -60 l-338 -5 0 426 0 426 253 0 c422 0 572 -23 668 -100 l38 -30 345 0
c393 0 359 -9 330 91 -84 284 -258 443 -578 530 -192 51 -195 52 -968 56
l-728 4 0 -1580z"/>
</g>
</svg>
